<?xml version="1.0" encoding="utf-8" ?>	<!-- Generator: Assembly 2.4 - http://assemblyapp.co -->	<svg version="1.1" xmlns="http://www.w3.org/2000/svg" xmlns:xlink="http://www.w3.org/1999/xlink" width="512.00" height="512.00" viewBox="0 0 512.0 512.0">		<g id="document" transform="scale(1.7066666666666668 1.7066666666666668) translate(150.0 150.0)">			<defs>				<filter id="cRbb7qng" x="0.00%" y="0.00%" width="116.19%" height="116.19%" filterUnits="objectBoundingBox">					<feOffset dx="7.93" dy="7.93" in="SourceAlpha" result="shadowOffsetOuter1" />					<feGaussianBlur stdDeviation="3.96" in="shadowOffsetOuter1" result="shadowBlurOuter1" />					<feFlood flood-color="#000000" flood-opacity="1.00" />					<feComposite in2="shadowBlurOuter1" operator="in" />					<feMerge>						<feMergeNode />						<feMergeNode in="SourceGraphic" />					</feMerge>				</filter>			</defs>			<path d="M-52.5035,48.9373 L45.371,48.9373 L45.371,-48.9373 L-52.5035,-48.9373 L-52.5035,48.9373 Z " fill="#ffffff" fill-opacity="1.00" filter="url(#cRbb7qng)" />			<defs>				<filter id="juPRb02I" x="-0.42%" y="-1.95%" width="110.92%" height="150.66%" filterUnits="objectBoundingBox">					<feOffset dx="9.70" dy="9.70" in="SourceAlpha" result="shadowOffsetOuter1" />					<feGaussianBlur stdDeviation="5.27" in="shadowOffsetOuter1" result="shadowBlurOuter1" />					<feFlood flood-color="#000000" flood-opacity="1.00" />					<feComposite in2="shadowBlurOuter1" operator="in" />					<feMerge>						<feMergeNode />						<feMergeNode in="SourceGraphic" />					</feMerge>				</filter>			</defs>			<path d="M-61.6366,-3.49106 L-77.4095,-3.49106 L-77.4095,3.14404 L-68.9701,3.14404 L-68.9701,12.8639 C-70.2505,13.6011 -71.7153,14.1443 -73.3644,14.4935 C-75.0134,14.8428 -76.7692,15.0174 -78.6317,15.0174 C-80.7658,15.0174 -82.6962,14.6294 -84.4229,13.8533 C-86.1495,13.0773 -87.6337,12.0102 -88.8754,10.6522 C-90.117,9.29411 -91.0774,7.68384 -91.7564,5.82136 C-92.4354,3.95888 -92.7749,1.92179 -92.7749,-0.289913 C-92.7749,-2.34641 -92.4354,-4.26709 -91.7564,-6.05197 C-91.0774,-7.83685 -90.117,-9.39862 -88.8754,-10.7373 C-87.6337,-12.0759 -86.1495,-13.1236 -84.4229,-13.8802 C-82.6962,-14.6369 -80.7658,-15.0152 -78.6317,-15.0152 C-76.5364,-15.0152 -74.5478,-14.666 -72.6659,-13.9675 C-70.7841,-13.2691 -69.1835,-12.2796 -67.8642,-10.9992 L-62.4514,-16.4702 C-64.6243,-18.4103 -67.0882,-19.7587 -69.8431,-20.5153 C-72.598,-21.2719 -75.547,-21.6503 -78.6899,-21.6503 C-81.8717,-21.6503 -84.7915,-21.1361 -87.4494,-20.1079 C-90.1073,-19.0797 -92.3966,-17.6149 -94.3173,-15.7136 C-96.238,-13.8123 -97.7416,-11.5133 -98.828,-8.81659 C-99.9145,-6.11987 -100.458,-3.12244 -100.458,0.175707 C-100.458,3.39625 -99.9145,6.32578 -98.828,8.9643 C-97.7416,11.6028 -96.238,13.863 -94.3173,15.7449 C-92.3966,17.6268 -90.1073,19.0819 -87.4494,20.1101 C-84.7915,21.1383 -81.8717,21.6525 -78.6899,21.6525 C-72.404,21.6525 -66.7196,20.2944 -61.6366,17.5783 L-61.6366,-3.49106 Z M-52.9644,20.6048 L-45.6308,20.6048 L-45.6308,2.44561 L-26.3658,2.44561 L-26.3658,20.6048 L-19.0322,20.6048 L-19.0322,-20.6026 L-26.3658,-20.6026 L-26.3658,-4.18949 L-45.6308,-4.18949 L-45.6308,-20.6026 L-52.9644,-20.6026 L-52.9644,20.6048 Z M-12.0479,0.175707 C-12.0479,3.39625 -11.5047,6.32578 -10.4183,8.9643 C-9.33182,11.6028 -7.82825,13.863 -5.90756,15.7449 C-3.98688,17.6268 -1.69758,19.0819 0.960343,20.1101 C3.61826,21.1383 6.53809,21.6525 9.71983,21.6525 C12.9404,21.6137 15.8893,21.0607 18.5666,19.9937 C21.2439,18.9266 23.5527,17.4425 25.4927,15.5412 C27.4328,13.6399 28.9461,11.37 30.0325,8.73149 C31.119,6.09297 31.6622,3.16344 31.6622,-0.057103 C31.6622,-3.35525 31.119,-6.34298 30.0325,-9.0203 C28.9461,-11.6976 27.4328,-13.9869 25.4927,-15.8882 C23.5527,-17.7895 21.2439,-19.2349 18.5666,-20.2243 C15.8893,-21.2137 12.9404,-21.6891 9.71983,-21.6503 C6.53809,-21.6503 3.61826,-21.1361 0.960343,-20.1079 C-1.69758,-19.0797 -3.98688,-17.6149 -5.90756,-15.7136 C-7.82825,-13.8123 -9.33182,-11.5133 -10.4183,-8.81659 C-11.5047,-6.11987 -12.0479,-3.12244 -12.0479,0.175707 Z M-4.36519,-0.289913 C-4.36519,-2.34641 -4.02568,-4.26709 -3.34665,-6.05197 C-2.66762,-7.83685 -1.70728,-9.39862 -0.465621,-10.7373 C0.776035,-12.0759 2.2602,-13.1236 3.98688,-13.8802 C5.71356,-14.6369 7.64394,-15.0152 9.77804,-15.0152 C11.9121,-15.0152 13.8522,-14.6369 15.5983,-13.8802 C17.3444,-13.1236 18.8382,-12.0759 20.0799,-10.7373 C21.3216,-9.39862 22.2819,-7.83685 22.9609,-6.05197 C23.64,-4.26709 23.9795,-2.34641 23.9795,-0.289913 C23.9795,1.92179 23.64,3.95888 22.9609,5.82136 C22.2819,7.68384 21.3216,9.29411 20.0799,10.6522 C18.8382,12.0102 17.3444,13.0773 15.5983,13.8533 C13.8522,14.6294 11.9121,15.0174 9.77804,15.0174 C7.64394,15.0174 5.71356,14.6294 3.98688,13.8533 C2.2602,13.0773 0.776035,12.0102 -0.465621,10.6522 C-1.70728,9.29411 -2.66762,7.68384 -3.34665,5.82136 C-4.02568,3.95888 -4.36519,1.92179 -4.36519,-0.289913 Z M64.1975,-17.4015 C62.5678,-18.9147 60.7344,-20.0012 58.6973,-20.6608 C56.6602,-21.3205 54.5552,-21.6503 52.3823,-21.6503 C50.4811,-21.6503 48.6186,-21.3981 46.7949,-20.8936 C44.9712,-20.3892 43.3512,-19.6229 41.935,-18.5946 C40.5187,-17.5664 39.3741,-16.2762 38.501,-14.7242 C37.628,-13.1721 37.1915,-11.329 37.1915,-9.19491 C37.1915,-6.7504 37.6765,-4.80061 38.6465,-3.34555 C39.6166,-1.89048 40.8194,-0.726433 42.2551,0.146606 C43.6908,1.01965 45.2622,1.70838 46.9695,2.2128 C48.6768,2.71722 50.2482,3.25074 51.6839,3.81337 C53.1196,4.37599 54.3224,5.06473 55.2925,5.87956 C56.2625,6.6944 56.7475,7.85845 56.7475,9.37172 C56.7475,10.303 56.5341,11.1275 56.1073,11.8453 C55.6805,12.5632 55.1179,13.1549 54.4194,13.6205 C53.721,14.0861 52.945,14.4353 52.0913,14.6682 C51.2377,14.901 50.384,15.0174 49.5304,15.0174 C47.9007,15.0174 46.3584,14.6391 44.9033,13.8824 C43.4482,13.1258 42.2745,12.0684 41.382,10.7104 L35.8528,16.065 C37.5601,18.0827 39.5972,19.5184 41.9641,20.372 C44.331,21.2256 46.7949,21.6525 49.3558,21.6525 C51.3735,21.6525 53.2942,21.3809 55.1179,20.8376 C56.9415,20.2944 58.5421,19.4796 59.9196,18.3931 C61.297,17.3067 62.3932,15.9389 63.208,14.2898 C64.0229,12.6408 64.4303,10.7104 64.4303,8.49868 C64.4303,6.05417 63.9453,4.09468 62.9752,2.62022 C62.0052,1.14575 60.8023,-0.0377021 59.3666,-0.930142 C57.931,-1.82258 56.3595,-2.52101 54.6522,-3.02544 C52.945,-3.52986 51.3735,-4.05368 49.9378,-4.59691 C48.5022,-5.14013 47.2993,-5.78036 46.3293,-6.51759 C45.3592,-7.25482 44.8742,-8.32187 44.8742,-9.71873 C44.8742,-10.65 45.0682,-11.4551 45.4562,-12.1341 C45.8442,-12.8132 46.3584,-13.3661 46.9986,-13.7929 C47.6388,-14.2197 48.3567,-14.5301 49.1521,-14.7242 C49.9475,-14.9182 50.7721,-15.0152 51.6257,-15.0152 C53.0614,-15.0152 54.4291,-14.7533 55.729,-14.2294 C57.0288,-13.7056 58.0668,-12.8811 58.8428,-11.7558 L64.1975,-17.4015 Z M80.4942,20.6048 L87.8277,20.6048 L87.8277,-13.9675 L100.458,-13.9675 L100.458,-20.6026 L67.8642,-20.6026 L67.8642,-13.9675 L80.4942,-13.9675 L80.4942,20.6048 Z " fill="#ffffff" fill-opacity="1.00" filter="url(#juPRb02I)" />		</g>	</svg>